{
  "accessors": [
    {
      "bufferView": 2,
      "componentType": 5126,
      "count": 984,
      "max": [
        3.189690113067627,
        18.789182662963867,
        3.1904098987579346
      ],
      "min": [
        -3.1937458515167236,
        -0.0008341582724824548,
        -3.1987109184265137
      ],
      "type": "VEC3"
    },
    {
      "bufferView": 2,
      "byteOffset": 11808,
      "componentType": 5126,
      "count": 984,
      "max": [
        0.9999971389770508,
        0.9842911958694458,
        0.9999992251396179
      ],
      "min": [
        -0.999997079372406,
        -1.0,
        -0.9999961853027344
      ],
      "type": "VEC3"
    },
    {
      "bufferView": 3,
      "componentType": 5126,
      "count": 984,
      "max": [
        1.0,
        0.9000847935676575,
        1.0,
        1.0
      ],
      "min": [
        -1.0,
        -0.8970912098884583,
        -1.0,
        1.0
      ],
      "type": "VEC4"
    },
    {
      "bufferView": 1,
      "componentType": 5126,
      "count": 984,
      "max": [
        0.9930742979049683,
        0.994555652141571
      ],
      "min": [
        0.001953125,
        0.006727337837219238
      ],
      "type": "VEC2"
    },
    {
      "bufferView": 0,
      "componentType": 5125,
      "count": 4536,
      "type": "SCALAR"
    },
    {
      "bufferView": 2,
      "byteOffset": 23616,
      "componentType": 5126,
      "count": 150,
      "max": [
        1.2781487703323364,
        19.940567016601563,
        1.278148889541626
      ],
      "min": [
        -1.2781487703323364,
        18.801143646240234,
        -1.2781484127044678
      ],
      "type": "VEC3"
    },
    {
      "bufferView": 2,
      "byteOffset": 25416,
      "componentType": 5126,
      "count": 150,
      "max": [
        0.9993053674697876,
        1.0,
        0.9993053674697876
      ],
      "min": [
        -0.999305248260498,
        -0.999875545501709,
        -0.9993053078651428
      ],
      "type": "VEC3"
    },
    {
      "bufferView": 3,
      "byteOffset": 15744,
      "componentType": 5126,
      "count": 150,
      "max": [
        0.9999880194664001,
        0.08693138509988785,
        1.0,
        1.0
      ],
      "min": [
        -1.0,
        -0.08693025261163712,
        -1.0,
        1.0
      ],
      "type": "VEC4"
    },
    {
      "bufferView": 1,
      "byteOffset": 7872,
      "componentType": 5126,
      "count": 150,
      "max": [
        0.9902048110961914,
        0.9927177429199219
      ],
      "min": [
        0.007430762052536011,
        0.48176467418670654
      ],
      "type": "VEC2"
    },
    {
      "bufferView": 0,
      "byteOffset": 18144,
      "componentType": 5125,
      "count": 648,
      "type": "SCALAR"
    }
  ],
  "asset": {
    "extras": {
      "author": "Saandy (https://sketchfab.com/Saandy)",
      "license": "CC-BY-4.0 (http://creativecommons.org/licenses/by/4.0/)",
      "source": "https://sketchfab.com/3d-models/absolut-vodka-1l-bottle-e11913a2fcdb41d5badfa841d6448c90",
      "title": "Absolut Vodka 1L Bottle"
    },
    "generator": "Sketchfab-15.8.0",
    "version": "2.0"
  },
  "bufferViews": [
    {
      "buffer": 0,
      "byteLength": 20736,
      "name": "floatBufferViews",
      "target": 34963
    },
    {
      "buffer": 0,
      "byteLength": 9072,
      "byteOffset": 20736,
      "byteStride": 8,
      "name": "floatBufferViews",
      "target": 34962
    },
    {
      "buffer": 0,
      "byteLength": 27216,
      "byteOffset": 29808,
      "byteStride": 12,
      "name": "floatBufferViews",
      "target": 34962
    },
    {
      "buffer": 0,
      "byteLength": 18144,
      "byteOffset": 57024,
      "byteStride": 16,
      "name": "floatBufferViews",
      "target": 34962
    }
  ],
  "buffers": [
    {
      "byteLength": 75168,
      "uri": "scene.bin"
    }
  ],
  "extensionsUsed": [
    "KHR_materials_transmission"
  ],
  "images": [
    {
      "uri": "textures/m_bottle_baseColor.png"
    },
    {
      "uri": "textures/m_bottle_metallicRoughness.png"
    },
    {
      "uri": "textures/m_bottle_normal.png"
    },
    {
      "uri": "textures/m_bottle_transmission.png"
    },
    {
      "uri": "textures/m_cap_baseColor.png"
    },
    {
      "uri": "textures/m_cap_metallicRoughness.png"
    },
    {
      "uri": "textures/m_cap_normal.png"
    }
  ],
  "materials": [
    {
      "alphaMode": "BLEND",
      "doubleSided": true,
      "extensions": {
        "KHR_materials_transmission": {
          "transmissionFactor": 1.0,
          "transmissionTexture": {
            "index": 3
          }
        }
      },
      "name": "m_bottle",
      "normalTexture": {
        "index": 2
      },
      "occlusionTexture": {
        "index": 1,
        "strength": 0.27276273603881457
      },
      "pbrMetallicRoughness": {
        "baseColorTexture": {
          "index": 0
        },
        "metallicRoughnessTexture": {
          "index": 1
        }
      }
    },
    {
      "doubleSided": true,
      "name": "m_cap",
      "normalTexture": {
        "index": 6
      },
      "occlusionTexture": {
        "index": 5
      },
      "pbrMetallicRoughness": {
        "baseColorTexture": {
          "index": 4
        },
        "metallicRoughnessTexture": {
          "index": 5
        }
      }
    }
  ],
  "meshes": [
    {
      "name": "bottle_Lp_m_bottle_0",
      "primitives": [
        {
          "attributes": {
            "NORMAL": 1,
            "POSITION": 0,
            "TANGENT": 2,
            "TEXCOORD_0": 3
          },
          "indices": 4,
          "material": 0,
          "mode": 4
        }
      ]
    },
    {
      "name": "lid_Lp_m_cap_0",
      "primitives": [
        {
          "attributes": {
            "NORMAL": 6,
            "POSITION": 5,
            "TANGENT": 7,
            "TEXCOORD_0": 8
          },
          "indices": 9,
          "material": 1,
          "mode": 4
        }
      ]
    }
  ],
  "nodes": [
    {
      "children": [
        1
      ],
      "matrix": [
        1.0,
        0.0,
        0.0,
        0.0,
        0.0,
        2.220446049250313e-16,
        -1.0,
        0.0,
        0.0,
        1.0,
        2.220446049250313e-16,
        0.0,
        0.0,
        0.0,
        0.0,
        1.0
      ],
      "name": "Sketchfab_model"
    },
    {
      "children": [
        2
      ],
      "matrix": [
        0.009999999776482582,
        0.0,
        0.0,
        0.0,
        0.0,
        0.0,
        0.009999999776482582,
        0.0,
        0.0,
        -0.009999999776482582,
        0.0,
        0.0,
        0.0,
        0.0,
        0.0,
        1.0
      ],
      "name": "absolut_vodka.fbx"
    },
    {
      "children": [
        3
      ],
      "name": "RootNode"
    },
    {
      "children": [
        4,
        6
      ],
      "name": "lp"
    },
    {
      "children": [
        5
      ],
      "name": "bottle_Lp"
    },
    {
      "mesh": 0,
      "name": "bottle_Lp_m_bottle_0"
    },
    {
      "children": [
        7
      ],
      "name": "lid_Lp"
    },
    {
      "mesh": 1,
      "name": "lid_Lp_m_cap_0"
    }
  ],
  "samplers": [
    {
      "magFilter": 9729,
      "minFilter": 9987,
      "wrapS": 10497,
      "wrapT": 10497
    }
  ],
  "scene": 0,
  "scenes": [
    {
      "name": "Sketchfab_Scene",
      "nodes": [
        0
      ]
    }
  ],
  "textures": [
    {
      "sampler": 0,
      "source": 0
    },
    {
      "sampler": 0,
      "source": 1
    },
    {
      "sampler": 0,
      "source": 2
    },
    {
      "sampler": 0,
      "source": 3
    },
    {
      "sampler": 0,
      "source": 4
    },
    {
      "sampler": 0,
      "source": 5
    },
    {
      "sampler": 0,
      "source": 6
    }
  ]
}
